<?xml version="1.0" encoding="UTF-8" standalone="no"?>
<!-- Created with Inkscape (http://www.inkscape.org/) -->

<svg
   xmlns:dc="http://purl.org/dc/elements/1.1/"
   xmlns:cc="http://creativecommons.org/ns#"
   xmlns:rdf="http://www.w3.org/1999/02/22-rdf-syntax-ns#"
   xmlns:svg="http://www.w3.org/2000/svg"
   xmlns="http://www.w3.org/2000/svg"
   xmlns:sodipodi="http://sodipodi.sourceforge.net/DTD/sodipodi-0.dtd"
   xmlns:inkscape="http://www.inkscape.org/namespaces/inkscape"
   width="4.20328mm"
   height="4.1559901mm"
   viewBox="0 0 4.20328 4.1559901"
   version="1.1"
   id="svg8"
   inkscape:version="0.92.2 (5c3e80d, 2017-08-06)"
   sodipodi:docname="gimp-save.svg">
  <defs
     id="defs2" />
  <sodipodi:namedview
     id="base"
     pagecolor="#484848"
     bordercolor="#666666"
     borderopacity="1.0"
     inkscape:pageopacity="0"
     inkscape:pageshadow="2"
     inkscape:zoom="16"
     inkscape:cx="-2.8422868"
     inkscape:cy="4.6336223"
     inkscape:document-units="mm"
     inkscape:current-layer="layer1"
     showgrid="false" />
  <metadata
     id="metadata5">
    <rdf:RDF>
      <cc:Work
         rdf:about="">
        <dc:format>image/svg+xml</dc:format>
        <dc:type
           rdf:resource="http://purl.org/dc/dcmitype/StillImage" />
        <dc:title></dc:title>
      </cc:Work>
    </rdf:RDF>
  </metadata>
  <g
     inkscape:label="Layer 1"
     inkscape:groupmode="layer"
     id="layer1"
     transform="translate(-199.02091,-204.39645)">
    <path
       style="opacity:1;fill:#b3b3b3;fill-opacity:1;stroke:none;stroke-width:0.02172873;stroke-linecap:butt;stroke-linejoin:miter;stroke-miterlimit:4;stroke-dasharray:none;stroke-dashoffset:16.85669327;stroke-opacity:1;paint-order:markers stroke fill"
       d="m 199.36017,204.39645 c -0.18794,0 -0.33926,0.15132 -0.33926,0.33927 v 3.47745 c 0,0.18795 0.15132,0.33927 0.33926,0.33927 h 1.74663 c 0.006,0 0.0107,-5.1e-4 0.016,-7.6e-4 0.006,2.5e-4 0.0103,7.6e-4 0.0155,7.6e-4 h 1.74663 c 0.18794,0 0.33926,-0.15132 0.33926,-0.33927 v -3.47745 c 0,-0.18795 -0.15132,-0.33927 -0.33926,-0.33927 h -1.74659 c -0.18795,0 -0.33926,0.15132 -0.33926,0.33927 v 1.48499 l -0.69342,0.004 1.02664,1.02659 1.03841,-1.0384 -0.74073,0.005 v -1.04749 c 0,-0.0558 0.045,-0.10068 0.10074,-0.10068 h 0.92038 c 0.0558,0 0.10068,0.0449 0.10068,0.10068 v 2.65956 c 0,0.0558 -0.0449,0.10069 -0.10068,0.10069 h -0.92038 c -0.003,0 -0.006,1.8e-4 -0.007,0 l -0.72398,-7.5e-4 v 7.5e-4 h -0.0768 c -0.003,1.8e-4 -0.006,7.5e-4 -0.008,7.5e-4 h -0.92038 c -0.0558,0 -0.10069,-0.0449 -0.10069,-0.10069 v -2.71022 c 0,-0.0172 0.005,-0.0332 0.0122,-0.0473 v -0.676 z"
       id="rect839"
       inkscape:connector-curvature="0" />
  </g>
</svg>
