<?xml version="1.0" encoding="UTF-8" standalone="no"?>
<!-- Generator: Adobe Illustrator 16.0.0, SVG Export Plug-In . SVG Version: 6.00 Build 0)  -->

<svg
   xmlns:dc="http://purl.org/dc/elements/1.1/"
   xmlns:cc="http://creativecommons.org/ns#"
   xmlns:rdf="http://www.w3.org/1999/02/22-rdf-syntax-ns#"
   xmlns:svg="http://www.w3.org/2000/svg"
   xmlns="http://www.w3.org/2000/svg"
   xmlns:sodipodi="http://sodipodi.sourceforge.net/DTD/sodipodi-0.dtd"
   xmlns:inkscape="http://www.inkscape.org/namespaces/inkscape"
   version="1.1"
   id="Layer_1"
   x="0px"
   y="0px"
   width="21.282078"
   height="21.25045"
   viewBox="0 0 21.282078 21.25045"
   enable-background="new 0 0 512 512"
   xml:space="preserve"
   sodipodi:docname="gimp-path.svg"
   inkscape:version="0.92.2 (5c3e80d, 2017-08-06)"><metadata
     id="metadata11"><rdf:RDF><cc:Work
         rdf:about=""><dc:format>image/svg+xml</dc:format><dc:type
           rdf:resource="http://purl.org/dc/dcmitype/StillImage" /><dc:title></dc:title></cc:Work></rdf:RDF></metadata><defs
     id="defs9" /><sodipodi:namedview
     pagecolor="#343434"
     bordercolor="#666666"
     borderopacity="1"
     objecttolerance="10"
     gridtolerance="10"
     guidetolerance="10"
     inkscape:pageopacity="0"
     inkscape:pageshadow="2"
     inkscape:window-width="640"
     inkscape:window-height="480"
     id="namedview7"
     showgrid="false"
     inkscape:zoom="11.269514"
     inkscape:cx="-9.5069858"
     inkscape:cy="9.1884301"
     inkscape:current-layer="Layer_1" /><path
     d="m 17.845948,5.8374194 c -2.38274,-2.25075 -5.73278,-2.84784 -8.6493105,-1.81907 l 2.3548105,-2.35481 c 0.33711,0.23495 0.84481,0.21354 1.16366,-0.10534 0.35545,-0.35546 0.35184,-0.93529995 -0.003,-1.29066995 -0.35541,-0.35545 -0.93343,-0.35729 -1.28884,-0.002 -0.31889,0.31889 -0.35324,0.81360995 -0.10003,1.16901995 l -2.8603405,2.86035 c -0.30642,0.14037 -0.60535,0.29918 -0.89053,0.47165 l -0.96322,-0.96326 -2.57423,2.57422 0.91061,0.91062 c -0.2518,0.37741 -0.4868,0.78841 -0.67498,1.1992 l -2.83319,2.8331496 c -0.35541,-0.25326 -0.85192,-0.2207 -1.17077,0.0982 -0.35545,0.35541 -0.35545,0.93164 0,1.28706 0.35546,0.35541 0.93884,0.3626 1.29421,0.007 0.31884,-0.31885 0.3403,-0.82651 0.10534,-1.16361 l 2.32762,-2.3275796 c -1.04967,2.8802296 -0.42096,6.2558096 1.79147,8.6196896 l -0.83497,0.83502 2.57419,2.57419 2.5742205,-2.57419 -2.5742205,-2.57423 -1.01469,1.01464 c -2.34047,-2.52187 -2.63543,-6.26649 -0.84596,-9.1105396 l 0.94539,0.9454 2.57419,-2.57423 -0.8984,-0.8984 c 2.7961995,-1.60854 6.4404005,-1.26845 8.8911995,1.02869 l -1.04239,1.04239 2.57419,2.5742296 2.5741,-2.5742296 -2.57423,-2.57423 z m -8.4344105,12.8391796 -1.88775,1.88776 -1.85916,-1.85916 1.88776,-1.88775 z M 20.594988,7.5503194 l -1.88776,1.88776 -1.88776,-1.88776 1.88776,-1.88776 z"
     id="path4"
     inkscape:connector-curvature="0"
     style="fill:#b3b3b3;fill-opacity:1;stroke-width:0.04256403" /></svg>