<?xml version="1.0" encoding="UTF-8" standalone="no"?>
<!-- Created with Inkscape (http://www.inkscape.org/) -->

<svg
   xmlns:dc="http://purl.org/dc/elements/1.1/"
   xmlns:cc="http://creativecommons.org/ns#"
   xmlns:rdf="http://www.w3.org/1999/02/22-rdf-syntax-ns#"
   xmlns:svg="http://www.w3.org/2000/svg"
   xmlns="http://www.w3.org/2000/svg"
   xmlns:sodipodi="http://sodipodi.sourceforge.net/DTD/sodipodi-0.dtd"
   xmlns:inkscape="http://www.inkscape.org/namespaces/inkscape"
   width="6.4356418mm"
   height="7.077765mm"
   viewBox="0 0 6.4356418 7.077765"
   version="1.1"
   id="svg893"
   inkscape:version="0.92.2 (5c3e80d, 2017-08-06)"
   sodipodi:docname="gimp-quit.svg">
  <defs
     id="defs887" />
  <sodipodi:namedview
     id="base"
     pagecolor="#444444"
     bordercolor="#666666"
     borderopacity="1.0"
     inkscape:pageopacity="0"
     inkscape:pageshadow="2"
     inkscape:zoom="11.2"
     inkscape:cx="12.797877"
     inkscape:cy="19.435647"
     inkscape:document-units="mm"
     inkscape:current-layer="layer1"
     showgrid="false" />
  <metadata
     id="metadata890">
    <rdf:RDF>
      <cc:Work
         rdf:about="">
        <dc:format>image/svg+xml</dc:format>
        <dc:type
           rdf:resource="http://purl.org/dc/dcmitype/StillImage" />
        <dc:title></dc:title>
      </cc:Work>
    </rdf:RDF>
  </metadata>
  <g
     inkscape:label="Layer 1"
     inkscape:groupmode="layer"
     id="layer1"
     transform="translate(44.589344,-145.1953)">
    <g
       id="g1466"
       transform="translate(1.8426339)">
      <path
         id="path1451"
         transform="scale(0.26458333)"
         d="m -166.875,552.91406 a 11.471069,11.240494 0 0 0 -7.92578,10.67578 11.471069,11.240494 0 0 0 11.47266,11.24024 11.471069,11.240494 0 0 0 11.4707,-11.24024 11.471069,11.240494 0 0 0 -7.96485,-10.67382 v 2.75586 a 8.8238996,8.6465343 0 0 1 5.31836,7.91796 8.8238996,8.6465343 0 0 1 -8.82421,8.64649 8.8238996,8.6465343 0 0 1 -8.82618,-8.64649 8.8238996,8.6465343 0 0 1 5.2793,-7.90039 z"
         style="opacity:1;fill:#b3b3b3;fill-opacity:1;stroke:#b3b3b3;stroke-width:1.38032508;stroke-linecap:square;stroke-linejoin:bevel;stroke-miterlimit:4;stroke-dasharray:none;stroke-dashoffset:0;stroke-opacity:1;paint-order:fill markers stroke"
         inkscape:connector-curvature="0" />
      <rect
         ry="0.50790548"
         y="145.1953"
         x="-43.727119"
         height="3.8742559"
         width="1.015811"
         id="rect1462"
         style="opacity:1;fill:#b3b3b3;fill-opacity:1;stroke:none;stroke-width:0.40000001;stroke-linecap:square;stroke-linejoin:bevel;stroke-miterlimit:4;stroke-dasharray:none;stroke-dashoffset:0;stroke-opacity:1;paint-order:fill markers stroke" />
    </g>
  </g>
</svg>
