<?xml version="1.0" encoding="UTF-8" standalone="no"?>
<!-- Created with Inkscape (http://www.inkscape.org/) -->

<svg
   xmlns:dc="http://purl.org/dc/elements/1.1/"
   xmlns:cc="http://creativecommons.org/ns#"
   xmlns:rdf="http://www.w3.org/1999/02/22-rdf-syntax-ns#"
   xmlns:svg="http://www.w3.org/2000/svg"
   xmlns="http://www.w3.org/2000/svg"
   xmlns:sodipodi="http://sodipodi.sourceforge.net/DTD/sodipodi-0.dtd"
   xmlns:inkscape="http://www.inkscape.org/namespaces/inkscape"
   width="4.2598319mm"
   height="4.2598mm"
   viewBox="0 0 4.259832 4.2598"
   version="1.1"
   id="svg8"
   inkscape:version="0.92.2 (5c3e80d, 2017-08-06)"
   sodipodi:docname="gimp-undo-circle.svg">
  <defs
     id="defs2" />
  <sodipodi:namedview
     id="base"
     pagecolor="#494949"
     bordercolor="#666666"
     borderopacity="1.0"
     inkscape:pageopacity="0"
     inkscape:pageshadow="2"
     inkscape:zoom="11.2016"
     inkscape:cx="-8.1096007"
     inkscape:cy="-4.9773921"
     inkscape:document-units="mm"
     inkscape:current-layer="layer1"
     showgrid="false" />
  <metadata
     id="metadata5">
    <rdf:RDF>
      <cc:Work
         rdf:about="">
        <dc:format>image/svg+xml</dc:format>
        <dc:type
           rdf:resource="http://purl.org/dc/dcmitype/StillImage" />
        <dc:title />
      </cc:Work>
    </rdf:RDF>
  </metadata>
  <g
     inkscape:label="Layer 1"
     inkscape:groupmode="layer"
     id="layer1"
     transform="translate(34.395972,-146.70339)">
    <path
       style="opacity:1;fill:#b3b3bf;fill-opacity:1;stroke:none;stroke-width:2.20966506;stroke-linecap:square;stroke-linejoin:bevel;stroke-miterlimit:4;stroke-dasharray:2.20966495, 4.41932998;stroke-dashoffset:0;stroke-opacity:1;paint-order:fill markers stroke"
       d="m -32.266051,146.70339 a 2.1299998,2.1299998 0 0 0 -2.129921,2.1299 2.1299998,2.1299998 0 0 0 2.129921,2.1299 2.1299998,2.1299998 0 0 0 2.129911,-2.1299 2.1299998,2.1299998 0 0 0 -2.129911,-2.1299 z m 0,0.36853 a 1.7622905,1.7622905 0 0 1 1.763727,1.76159 1.7622905,1.7622905 0 0 1 -1.763727,1.76155 1.7622905,1.7622905 0 0 1 -1.761565,-1.76155 1.7622905,1.7622905 0 0 1 1.761565,-1.76159 z"
       id="path845"
       inkscape:connector-curvature="0" />
    <path
       style="opacity:1;fill:#b3b3bf;fill-opacity:1;stroke:none;stroke-width:1.66420221;stroke-linecap:square;stroke-linejoin:bevel;stroke-miterlimit:4;stroke-dasharray:1.66420205, 3.32840415;stroke-dashoffset:0;stroke-opacity:1;paint-order:fill markers stroke"
       d="m -32.637279,147.63571 v 0.49791 a 1.3515274,1.3515274 0 0 1 0.213247,-0.0218 1.3515274,1.3515274 0 0 1 1.351096,1.35113 1.3515274,1.3515274 0 0 1 -0.08361,0.46321 1.3515274,1.3515274 0 0 0 -1.267472,-0.8878 1.3515274,1.3515274 0 0 0 -0.213247,0.0218 v 0.57878 l -1.001576,-1.00257 z"
       id="rect850"
       inkscape:connector-curvature="0" />
  </g>
</svg>
