<?xml version="1.0" encoding="UTF-8" standalone="no"?>
<!-- Created with Inkscape (http://www.inkscape.org/) -->

<svg
   xmlns:dc="http://purl.org/dc/elements/1.1/"
   xmlns:cc="http://creativecommons.org/ns#"
   xmlns:rdf="http://www.w3.org/1999/02/22-rdf-syntax-ns#"
   xmlns:svg="http://www.w3.org/2000/svg"
   xmlns="http://www.w3.org/2000/svg"
   xmlns:sodipodi="http://sodipodi.sourceforge.net/DTD/sodipodi-0.dtd"
   xmlns:inkscape="http://www.inkscape.org/namespaces/inkscape"
   width="4.978961mm"
   height="7.8145609mm"
   viewBox="0 0 4.978961 7.8145609"
   version="1.1"
   id="svg860"
   inkscape:version="0.92.2 (5c3e80d, 2017-08-06)"
   sodipodi:docname="gimp-redo.svg">
  <defs
     id="defs854" />
  <sodipodi:namedview
     id="base"
     pagecolor="#515151"
     bordercolor="#666666"
     borderopacity="1.0"
     inkscape:pageopacity="0"
     inkscape:pageshadow="2"
     inkscape:zoom="7.9195959"
     inkscape:cx="-22.912598"
     inkscape:cy="17.59157"
     inkscape:document-units="mm"
     inkscape:current-layer="layer1"
     showgrid="false" />
  <metadata
     id="metadata857">
    <rdf:RDF>
      <cc:Work
         rdf:about="">
        <dc:format>image/svg+xml</dc:format>
        <dc:type
           rdf:resource="http://purl.org/dc/dcmitype/StillImage" />
        <dc:title />
      </cc:Work>
    </rdf:RDF>
  </metadata>
  <g
     inkscape:label="Layer 1"
     inkscape:groupmode="layer"
     id="layer1"
     transform="translate(-55.718852,-207.66975)">
    <path
       style="opacity:1;fill:#b3b3b3;fill-opacity:1;stroke:#b3b3b3;stroke-width:0;stroke-linecap:round;stroke-linejoin:round;stroke-miterlimit:4;stroke-dasharray:none;stroke-dashoffset:0;stroke-opacity:1;paint-order:markers stroke fill"
       d="m 59.202783,207.66975 1.49503,1.49501 -1.49503,1.49504 v -1.23701 a 2.745654,2.745654 0 0 0 -0.16163,-0.006 2.745654,2.745654 0 0 0 -2.74564,2.74565 2.745654,2.745654 0 0 0 2.74564,2.74565 2.745654,2.745654 0 0 0 0.17471,-0.009 v 0.57922 a 3.3223025,3.3223025 0 0 1 -0.17471,0.006 3.3223025,3.3223025 0 0 1 -3.3223,-3.32231 3.3223025,3.3223025 0 0 1 3.3223,-3.32229 3.3223025,3.3223025 0 0 1 0.16163,0.008 z"
       id="path815"
       inkscape:connector-curvature="0" />
  </g>
</svg>
